<svg xmlns="http://www.w3.org/2000/svg" width="430" height="430" style="width:100%;height:100%;transform:translate3d(0,0,0);content-visibility:visible" viewBox="0 0 430 430"><defs><clipPath id="a"><path d="M0 0h430v430H0z"/></clipPath><clipPath id="d"><path d="M0 0h430v430H0z"/></clipPath><clipPath id="c"><path d="M0 0h430v430H0z"/></clipPath><clipPath id="b"><path d="M0 0h430v430H0z"/></clipPath></defs><g fill="none" clip-path="url(#a)"><g stroke-linecap="round" stroke-linejoin="round" stroke-width="3.15" clip-path="url(#b)" style="display:block"><path stroke="#121331" d="M-36.544 16.278A39.825 39.825 0 0 1-40 0c0-22.076 17.924-40 40-40 0 0 0 0 0 0 11.788 0 22.391 5.11 29.715 13.234" class="primary" style="display:block" transform="matrix(-4 0 0 -4 215 215)"/><path stroke="#121331" d="M-16.438 11.713V23.5h11.75" class="primary" style="display:block" transform="matrix(0 4.12764 -3.94624 0 179.235 379.85)"/><path stroke="#08A88A" d="M-36.544 16.278A39.825 39.825 0 0 1-40 0c0-22.076 17.924-40 40-40 0 0 0 0 0 0 11.788 0 22.391 5.11 29.715 13.234" class="secondary" style="display:block" transform="matrix(4 0 0 4 215 215)"/><path stroke="#08A88A" d="M-16.438 11.713V23.5h11.75" class="secondary" style="display:block" transform="matrix(0 -4.07448 3.9616 0 250.904 52.273)"/></g><g clip-path="url(#c)" style="display:none"><path class="primary" style="display:none"/><path class="primary" style="display:none"/><path class="secondary" style="display:none"/><path class="secondary" style="display:none"/></g><g clip-path="url(#d)" style="display:none"><path class="primary" style="display:none"/><path class="primary" style="display:none"/><path class="secondary" style="display:none"/><path class="secondary" style="display:none"/></g></g></svg>